<?xml version="1.0" standalone="no"?>
<!DOCTYPE svg PUBLIC "-//W3C//DTD SVG 20010904//EN"
 "http://www.w3.org/TR/2001/REC-SVG-20010904/DTD/svg10.dtd">
<svg version="1.0" xmlns="http://www.w3.org/2000/svg"
 width="300.000000pt" height="300.000000pt" viewBox="0 0 300.000000 300.000000"
 preserveAspectRatio="xMidYMid meet">
<metadata>
Created by potrace 1.10, written by Peter Selinger 2001-2011
</metadata>
<g transform="translate(0.000000,300.000000) scale(0.050000,-0.050000)"
fill="#000000" stroke="none">
<path d="M2906 5821 c-24 -11 -91 -51 -148 -90 -138 -95 -166 -100 -318 -52
-232 72 -266 64 -429 -108 l-141 -149 -197 -6 c-227 -7 -269 -36 -340 -232
-51 -144 -81 -176 -187 -203 -284 -72 -319 -106 -345 -327 -23 -197 -27 -204
-182 -295 -204 -119 -231 -186 -178 -434 27 -125 10 -168 -121 -311 -131 -143
-147 -222 -75 -365 105 -209 106 -230 26 -406 -103 -230 -97 -276 62 -447 115
-125 134 -178 108 -301 -52 -243 -25 -309 176 -425 140 -82 183 -149 183 -290
0 -178 70 -261 260 -310 186 -48 195 -56 281 -242 94 -205 146 -238 347 -219
158 14 207 -9 327 -159 115 -142 169 -167 300 -135 318 77 295 75 360 33 307
-194 335 -197 547 -61 164 105 186 109 348 53 212 -73 277 -53 425 129 108
135 162 158 325 140 187 -20 267 34 339 232 50 138 104 186 246 220 222 52
262 96 291 326 23 177 47 214 186 284 183 93 220 175 176 394 -31 150 -16 193
110 334 151 170 156 224 44 461 -66 140 -65 175 6 316 56 110 72 179 65 279
-2 25 -52 98 -111 163 -135 146 -142 170 -111 362 35 213 15 257 -163 362
-176 105 -176 105 -205 307 -32 217 -67 258 -271 311 -180 46 -202 66 -271
242 -75 190 -120 218 -359 218 l-179 0 -71 83 c-211 245 -252 260 -491 176
-141 -50 -178 -43 -336 64 -124 84 -230 111 -309 78z m227 -103 c37 -23 67
-43 67 -45 0 -1 -90 -3 -200 -3 -110 0 -200 1 -200 3 0 71 238 104 333 45z
m-744 -99 c12 -12 7 -19 -13 -19 -18 0 -98 -22 -178 -49 -176 -60 -182 -57
-76 38 84 77 207 90 267 30z m1458 -1 c124 -96 105 -118 -58 -66 -83 27 -166
49 -185 50 -52 2 77 56 138 57 29 1 76 -18 105 -41z m-395 -49 c1696 -296
2637 -2175 1863 -3719 -895 -1784 -3389 -1926 -4489 -255 -1240 1884 398 4363
2626 3974z m-1772 -229 c17 -11 20 -20 7 -20 -13 0 -83 -40 -155 -88 -138 -93
-163 -84 -87 29 57 84 169 122 235 79z m2765 -1 c66 -18 155 -126 155 -188 0
-6 -60 30 -134 79 -73 50 -141 90 -151 90 -10 0 -12 9 -5 20 16 25 41 25 135
-1z m-3346 -454 c0 -8 -55 -73 -122 -145 l-121 -130 14 70 c24 129 34 144 117
181 91 42 113 47 112 24z m3874 -5 c61 0 147 -112 147 -191 l0 -74 -43 57
c-24 32 -80 98 -125 146 -49 52 -67 83 -45 75 20 -7 50 -13 66 -13z m-4329
-626 c-12 -14 -49 -88 -81 -164 l-59 -139 -14 92 c-16 110 7 164 95 217 67 41
95 38 59 -6z m4847 -93 c12 -33 17 -94 12 -135 l-8 -75 -78 167 c-42 92 -77
172 -77 177 0 34 134 -85 151 -134z m-5110 -683 c-11 -59 -25 -144 -32 -188
l-13 -80 -30 58 c-48 92 -41 175 23 259 70 92 76 87 52 -49z m5339 -79 c0 -34
-15 -90 -34 -125 l-35 -64 -12 120 c-7 66 -19 152 -27 190 l-14 70 61 -65 c40
-43 61 -86 61 -126z m-1 -774 c1 -45 -17 -84 -61 -130 -59 -62 -61 -63 -50
-15 7 28 18 116 25 198 l13 147 36 -67 c20 -38 37 -97 37 -133z m-5357 22 c10
-75 24 -155 30 -177 8 -30 -5 -24 -51 25 -75 80 -83 135 -37 251 29 74 35 63
58 -99z m293 -918 c-3 -2 -39 17 -80 43 -83 54 -106 113 -86 222 l14 74 79
-167 c43 -92 76 -169 73 -172z m4773 56 c-104 -90 -115 -82 -51 40 31 58 68
137 84 175 l27 70 8 -110 c7 -106 4 -113 -68 -175z m-4357 -641 c-84 -20 -176
72 -199 196 l-12 70 118 -130 c65 -71 107 -133 93 -136z m4041 148 c-15 -81
-58 -122 -155 -148 l-73 -20 113 136 c116 140 136 146 115 32z m-3479 -608
c-120 -14 -183 30 -222 151 -12 40 4 34 133 -50 140 -90 144 -95 89 -101z
m2939 120 c-52 -100 -88 -124 -187 -124 l-93 0 149 98 c166 110 175 111 131
26z m-2314 -346 c160 -46 164 -51 66 -77 -93 -25 -133 -14 -209 56 -62 57 -73
95 -20 72 19 -8 93 -31 163 -51z m1649 11 c-57 -87 -131 -114 -241 -86 l-95
24 170 54 c213 69 206 69 166 8z m-777 -160 c-97 -59 -148 -61 -251 -9 -111
57 -104 60 126 59 l205 0 -80 -50z"/>
<path d="M4155 4718 c-223 -52 -471 -275 -554 -496 -33 -88 -70 -144 -128
-193 -112 -96 -140 -85 -158 61 -38 308 -155 472 -347 486 l-120 8 -105 -115
c-135 -148 -198 -274 -223 -446 -34 -242 1 -404 135 -631 42 -70 23 -118 -55
-138 -57 -14 -73 -11 -90 16 -155 262 -360 383 -579 342 -206 -39 -182 -557
39 -808 60 -70 110 -131 110 -136 0 -33 -71 -162 -169 -308 -255 -378 -423
-822 -407 -1077 10 -155 39 -183 191 -183 185 0 207 22 314 324 130 363 247
597 357 711 76 80 76 80 188 3 360 -248 820 -323 1099 -179 265 137 228 374
-117 752 -107 117 -113 149 -22 112 85 -35 458 -60 629 -44 487 48 773 435
502 678 -63 56 -327 263 -393 307 -11 7 68 96 175 198 262 247 340 425 274
625 -48 145 -266 197 -546 131z m453 -212 c-5 -328 -330 -635 -718 -678 -219
-24 -328 -153 -113 -134 274 25 447 -37 714 -259 253 -210 245 -189 123 -307
-348 -336 -998 -342 -1418 -13 -129 101 -131 100 -192 -21 -34 -68 -59 -92
-104 -101 -32 -6 -96 -35 -142 -64 -107 -68 -81 -96 86 -92 357 10 586 -127
827 -493 129 -197 129 -195 35 -234 -41 -18 -88 -43 -105 -58 -118 -101 -487
-76 -726 48 -42 22 -89 40 -104 40 -51 0 -266 179 -300 250 -18 38 -36 70 -40
70 -44 0 -76 -42 -102 -132 -23 -79 -52 -125 -111 -175 -49 -42 -75 -79 -68
-97 7 -16 -19 -76 -57 -132 -38 -57 -80 -137 -93 -178 -23 -78 -30 -96 -90
-240 -33 -80 -41 -117 -47 -220 -5 -72 -57 -106 -165 -106 -125 0 -133 19 -88
205 90 374 218 661 418 942 118 166 259 393 249 401 -4 3 -36 17 -71 31 -226
90 -410 592 -281 768 104 142 495 -215 564 -515 l13 -57 184 177 c227 219 218
192 97 315 -240 244 -231 611 21 921 160 196 156 195 270 56 134 -164 166
-398 86 -636 -76 -230 -56 -252 91 -101 88 90 224 192 377 283 19 11 45 70 59
130 83 354 360 541 793 532 l130 -2 -2 -124z m-1408 -1556 c21 -26 16 -30 -38
-30 -59 0 -78 18 -49 47 23 22 61 15 87 -17z"/>
<path d="M2889 4091 c-8 -42 -5 -83 6 -94 13 -13 25 5 34 54 8 43 5 83 -6 94
-14 14 -25 -4 -34 -54z"/>
<path d="M3929 4095 c-98 -67 -147 -123 -125 -145 14 -15 256 168 256 193 0
30 -34 18 -131 -48z"/>
<path d="M2887 3930 c-32 -73 -21 -440 13 -440 24 0 30 36 33 186 4 211 -16
321 -46 254z"/>
<path d="M3004 3939 c4 -12 14 -21 22 -20 7 0 28 1 44 1 17 0 30 9 30 20 0 11
-23 20 -52 20 -28 0 -48 -10 -44 -21z"/>
<path d="M3368 3477 c-20 -33 42 -72 139 -87 92 -15 342 -78 401 -101 27 -11
35 -8 28 13 -23 72 -534 229 -568 175z"/>
<path d="M3851 3161 c-18 -28 4 -61 42 -61 17 0 27 14 23 33 -7 41 -47 57 -65
28z"/>
<path d="M2120 3120 c0 -36 199 -260 232 -260 52 0 28 51 -67 142 -132 125
-165 149 -165 118z"/>
<path d="M3845 3035 c13 -39 115 -44 115 -6 0 21 -19 31 -62 31 -40 0 -58 -9
-53 -25z"/>
<path d="M2580 2632 c0 -45 48 -72 183 -101 210 -46 466 -114 487 -129 36 -27
190 -69 203 -56 21 22 -35 74 -80 74 -23 0 -114 31 -202 69 -298 127 -591 199
-591 143z"/>
<path d="M2970 2200 c-16 -26 40 -48 81 -32 40 15 18 52 -31 52 -21 0 -43 -9
-50 -20z"/>
</g>
</svg>
