<?xml version="1.0" encoding="utf-8"?>
<svg viewBox="200 100 400 400" xmlns="http://www.w3.org/2000/svg">
  <g transform="matrix(0.1, 0, 0, -0.1, -45.295132, 919.943542)" fill="#000000" stroke="none">
    <path d="M4155 7010 c-3 -5 -12 -10 -20 -10 -40 0 -165 -118 -217 -205 -44 -73 -49 -90 -57 -213 l-6 -97 -45 -21 c-25 -12 -67 -25 -95 -29 -108 -14 -341 -73 -395 -100 -14 -7 -55 -22 -92 -34 -37 -13 -70 -27 -73 -31 -3 -5 -37 -26 -76 -46 -39 -20 -90 -56 -114 -79 -47 -44 -95 -108 -95 -127 0 -5 15 -33 32 -60 33 -50 106 -98 149 -98 18 0 82 28 234 100 146 70 189 87 255 100 35 6 73 18 84 26 14 9 48 14 102 14 l81 0 16 -82 c23 -116 100 -305 153 -375 13 -17 24 -38 25 -45 1 -20 166 -158 189 -158 6 0 35 -11 63 -24 116 -55 219 -6 255 122 38 135 55 240 50 319 -2 48 0 58 15 61 11 2 17 -3 17 -15 0 -20 18 -48 58 -90 12 -13 22 -28 22 -32 0 -4 25 -35 56 -67 31 -32 61 -63 66 -69 17 -18 87 -80 120 -106 67 -53 201 -99 285 -99 104 1 144 14 184 59 38 43 66 118 54 148 -3 10 -8 50 -11 88 -2 39 -9 95 -16 125 -6 30 -12 73 -12 95 l-1 40 45 -1 c25 -1 101 -3 170 -6 141 -5 202 6 255 46 18 14 38 26 42 26 17 0 71 66 93 112 31 67 8 122 -86 207 -128 116 -227 161 -367 165 -106 3 -155 -6 -250 -48 -65 -28 -88 -33 -136 -31 -60 3 -101 20 -101 42 0 7 12 27 28 45 89 107 131 201 132 297 0 53 -25 98 -81 142 l-40 32 -102 -6 c-130 -6 -211 -35 -305 -108 -64 -50 -132 -125 -175 -192 -18 -28 -47 -123 -47 -154 0 -9 -12 -29 -26 -44 l-26 -27 -45 25 c-37 21 -44 29 -38 47 23 70 31 164 19 231 -16 97 -42 140 -111 186 -60 40 -78 46 -88 29z m50 -48 c12 -8 37 -50 66 -111 19 -40 21 -56 16 -140 -3 -59 -11 -108 -21 -126 -9 -16 -16 -36 -16 -44 0 -8 -14 -36 -31 -63 -16 -28 -28 -52 -26 -55 3 -2 83 -5 178 -6 l174 -2 0 101 c0 59 5 107 12 115 6 8 14 25 18 39 23 76 191 231 275 254 38 10 293 35 302 30 12 -8 -2 -163 -19 -208 -8 -22 -29 -58 -46 -80 -40 -51 -129 -136 -142 -136 -5 0 -30 -14 -55 -30 -25 -16 -52 -30 -61 -30 -21 0 -53 -36 -44 -50 5 -8 26 -10 64 -6 84 9 235 -12 356 -49 14 -4 29 2 48 19 16 14 31 26 36 26 4 0 12 5 18 11 7 7 36 20 65 30 69 24 242 26 284 4 16 -8 37 -15 47 -15 24 0 61 -25 123 -79 27 -26 71 -63 97 -84 26 -21 47 -45 47 -53 0 -8 -23 -36 -50 -62 -51 -48 -106 -81 -171 -101 -50 -15 -176 -13 -224 4 -22 8 -58 14 -80 15 -22 0 -49 7 -59 15 -11 8 -26 15 -34 15 -15 0 -76 44 -129 93 -27 25 -42 31 -88 33 -61 3 -68 -6 -27 -38 71 -58 154 -157 188 -225 30 -59 38 -89 45 -160 4 -48 13 -132 19 -186 13 -113 7 -131 -39 -117 -16 4 -59 5 -95 3 -39 -4 -76 -1 -89 5 -12 6 -40 13 -61 16 -22 3 -42 9 -45 14 -3 5 -26 21 -51 35 -100 58 -269 248 -339 381 -32 60 -49 133 -58 244 -5 63 -6 64 -32 57 -14 -3 -41 -9 -59 -12 -18 -3 -35 -9 -38 -14 -9 -16 -34 -10 -69 17 -19 14 -40 24 -47 22 -7 -3 -26 1 -42 7 -25 11 -66 10 -66 -1 0 -11 25 -54 31 -54 17 0 100 -94 131 -148 77 -134 111 -280 85 -366 -21 -67 -47 -199 -47 -236 0 -40 -38 -51 -76 -21 -18 14 -41 21 -70 21 -23 0 -46 5 -49 10 -4 6 -26 20 -50 33 -23 12 -66 49 -93 82 -51 60 -142 228 -142 262 0 11 -5 24 -12 31 -38 38 -60 229 -33 283 17 31 16 33 -1 46 -24 17 -52 11 -106 -26 -40 -27 -48 -28 -120 -24 l-77 6 -7 -27 c-5 -23 -11 -26 -30 -22 -37 10 -200 -39 -235 -70 -8 -8 -23 -14 -31 -14 -9 0 -21 -7 -28 -15 -7 -8 -24 -15 -38 -15 -26 0 -92 -36 -92 -50 0 -5 -10 -12 -22 -16 -13 -4 -27 -13 -33 -19 -24 -30 -51 -26 -108 17 -74 56 -74 75 -3 122 30 20 59 36 65 36 6 0 25 13 43 28 43 36 204 115 258 126 14 2 52 14 85 26 83 30 164 49 270 64 50 6 97 15 105 18 8 4 48 14 89 23 91 20 96 23 78 43 -30 35 -42 116 -28 197 7 42 19 88 27 103 7 15 14 32 14 37 0 17 78 94 169 168 36 29 41 31 56 19z m293 -834 c7 -7 12 -23 12 -37 l0 -26 -25 30 c-13 17 -24 33 -25 38 0 11 25 8 38 -5z"/>
    <path d="M4922 6779 c-25 -9 -61 -47 -62 -63 0 -5 8 -2 18 6 9 9 25 18 36 19 10 2 22 14 27 27 5 12 7 22 6 21 -1 0 -13 -4 -25 -10z"/>
    <path d="M4785 6667 c-106 -78 -187 -169 -168 -188 15 -15 42 0 67 38 13 19 38 44 55 57 43 32 113 114 109 127 -2 6 -30 -9 -63 -34z"/>
    <path d="M4076 6658 c-9 -42 -15 -188 -10 -203 9 -23 31 -18 35 8 7 42 -2 217 -11 217 -6 0 -12 -10 -14 -22z"/>
    <path d="M4166 6641 c-8 -12 18 -21 33 -11 10 5 8 9 -4 14 -21 8 -23 8 -29 -3z"/>
    <path d="M4880 6635 c0 -8 6 -15 14 -15 8 0 17 -8 20 -17 5 -11 10 -13 17 -6 8 8 5 17 -10 32 -25 25 -41 27 -41 6z"/>
    <path d="M5275 6290 c-12 -19 6 -30 50 -30 24 0 67 -5 95 -11 66 -14 81 -8 39 18 -38 23 -173 40 -184 23z"/>
    <path d="M4825 6250 c-9 -15 22 -80 60 -121 19 -21 48 -68 65 -104 17 -36 35 -65 40 -65 5 0 10 -12 12 -27 4 -39 28 -42 28 -4 0 17 -4 31 -10 31 -5 0 -10 10 -10 22 0 22 -56 130 -116 224 -33 51 -56 66 -69 44z"/>
    <path d="M4071 6231 c-25 -16 -6 -75 43 -136 25 -30 46 -61 46 -68 0 -7 16 -36 35 -66 19 -29 35 -55 35 -58 0 -4 11 -21 25 -39 14 -18 25 -42 25 -54 0 -11 7 -23 15 -26 8 -4 15 -18 15 -34 0 -28 22 -60 41 -60 20 0 9 59 -16 78 -14 11 -25 25 -25 31 0 54 -159 374 -212 427 -8 8 -18 10 -27 5z"/>
    <path d="M5545 6191 c-3 -5 -1 -12 4 -15 12 -8 41 3 41 15 0 12 -37 12 -45 0z"/>
    <path d="M5560 6130 c0 -5 7 -10 15 -10 8 0 15 5 15 10 0 6 -7 10 -15 10 -8 0 -15 -4 -15 -10z"/>
    <path d="M4097 5867 c-3 -8 -1 -20 3 -27 11 -18 41 5 33 26 -7 18 -29 18 -36 1z"/>
    <path d="M4904 5865 c-7 -18 3 -35 21 -35 15 0 24 19 18 38 -6 17 -32 15 -39 -3z"/>
    <path d="M4045 5839 c-8 -12 23 -49 42 -49 19 0 16 13 -7 38 -24 25 -26 26 -35 11z"/>
    <path d="M4855 5829 c-9 -14 22 -59 40 -59 8 0 15 8 15 19 0 22 -46 56 -55 40z"/>
    <path d="M5090 5766 c0 -7 7 -19 15 -26 13 -11 15 -8 15 14 0 16 -5 26 -15 26 -8 0 -15 -6 -15 -14z"/>
  </g>
</svg>